Coordinates
version=1
nRows=38
nColumns=12
inDegrees=yes

Units are S.I. units (second, meters, Newtons, ...)
Angles are in degrees

endheader
time	SC_y	SC_z	SC_x	AC_y	AC_z	AC_x	GH_y	GH_z	GH_yy	EL_x	PS_y
       0.0              -48.74          33.16          54.27          60.52         -0.917          -15.4          152.0          -17.5          155.9          5.446          27.12
   0.02342              -48.73          33.16          54.27          60.52        -0.9161         -15.39          152.0         -17.49          155.8          5.457          27.13
   0.04685              -48.73          33.15          54.27          60.52        -0.9151         -15.39          152.0         -17.47          155.8           5.47          27.13
   0.07027              -48.72          33.14          54.27          60.52        -0.9141         -15.38          151.9         -17.46          155.8          5.482          27.14
   0.09369              -48.72          33.14          54.27          60.52        -0.9129         -15.38          151.9         -17.44          155.7          5.496          27.15
    0.1171              -48.71          33.13          54.27          60.52        -0.9118         -15.37          151.9         -17.43          155.7          5.511          27.16
    0.1405               -48.7          33.12          54.27          60.52        -0.9105         -15.36          151.9         -17.41          155.7          5.526          27.17
     0.164               -48.7          33.12          54.27          60.52        -0.9091         -15.36          151.8         -17.39          155.6          5.543          27.17
    0.1874              -48.69          33.11          54.27          60.52        -0.9077         -15.35          151.8         -17.37          155.6          5.561          27.18
    0.2108              -48.68           33.1          54.27          60.52        -0.9061         -15.34          151.8         -17.35          155.5           5.58          27.19
    0.2342              -48.67          33.09          54.26          60.52        -0.9044         -15.33          151.7         -17.33          155.4          5.601          27.21
    0.2576              -48.66          33.08          54.26          60.52        -0.9026         -15.32          151.7         -17.31          155.4          5.623          27.22
    0.2811              -48.65          33.07          54.26          60.52        -0.9007         -15.31          151.6         -17.28          155.3          5.647          27.23
    0.3045              -48.64          33.05          54.26          60.52        -0.8986          -15.3          151.6         -17.25          155.2          5.673          27.24
    0.3279              -48.63          33.04          54.26          60.52        -0.8963         -15.29          151.5         -17.22          155.2          5.701          27.26
    0.3513              -48.61          33.02          54.26          60.52        -0.8938         -15.28          151.5         -17.19          155.1          5.731          27.28
    0.3748               -48.6          33.01          54.25          60.53        -0.8911         -15.26          151.4         -17.15          155.0          5.764          27.29
    0.3982              -48.58          32.99          54.25          60.53        -0.8882         -15.25          151.4         -17.11          154.9            5.8          27.31
    0.4216              -48.57          32.97          54.25          60.53         -0.885         -15.23          151.3         -17.07          154.8          5.839          27.34
     0.445              -48.55          32.95          54.25          60.53        -0.8815         -15.21          151.2         -17.02          154.7          5.882          27.36
    0.4685              -48.53          32.93          54.24          60.53        -0.8777         -15.19          151.1         -16.97          154.5          5.929          27.38
    0.4919               -48.5           32.9          54.24          60.53        -0.8735         -15.17          151.0         -16.91          154.4          5.981          27.41
    0.5153              -48.48          32.88          54.24          60.53        -0.8688         -15.14          150.9         -16.85          154.2          6.038          27.44
    0.5387              -48.45          32.85          54.23          60.53        -0.8636         -15.12          150.8         -16.78          154.0          6.101          27.48
    0.5621              -48.42          32.81          54.23          60.53        -0.8579         -15.09          150.7          -16.7          153.8          6.172          27.52
    0.5856              -48.39          32.77          54.22          60.53        -0.8515         -15.05          150.6         -16.62          153.6          6.251          27.56
     0.609              -48.35          32.73          54.22          60.54        -0.8443         -15.02          150.4         -16.52          153.4          6.339          27.61
    0.6324               -48.3          32.68          54.21          60.54        -0.8362         -14.97          150.2         -16.41          153.1          6.438          27.66
    0.6558              -48.26          32.63           54.2          60.54        -0.8271         -14.93          150.0         -16.29          152.8           6.55          27.72
    0.6793               -48.2          32.57           54.2          60.54        -0.8167         -14.87          149.8         -16.15          152.4          6.677          27.79
    0.7027              -48.14           32.5          54.19          60.54        -0.8049         -14.81          149.5         -15.99          152.0          6.822          27.87
    0.7261              -48.06          32.42          54.18          60.55        -0.7913         -14.74          149.2         -15.81          151.6          6.989          27.96
    0.7495              -47.98          32.32          54.16          60.55        -0.7757         -14.66          148.9          -15.6          151.0          7.181          28.07
    0.7729              -47.88          32.22          54.15          60.56        -0.7575         -14.56          148.5         -15.36          150.4          7.405          28.19
    0.7964              -47.77          32.09          54.13          60.56        -0.7361         -14.45          148.0         -15.07          149.7          7.666          28.33
    0.8198              -47.63          31.94          54.11          60.57         -0.711         -14.32          147.4         -14.73          148.8          7.975           28.5
    0.8432              -47.47          31.76          54.09          60.57        -0.6812         -14.16          146.8         -14.33          147.8          8.341           28.7
    0.8666              -47.28          31.55          54.06          60.58        -0.6454         -13.98          146.0         -13.85          146.5           8.78          28.94
